# xmcd CD database file
# Copyright (C) 1993-1998 Ti Kan
#
# Track frame offsets:
# 150
# 14222
# 34512
# 51577
# 69590
# 93022
# 103465
# 126915
# 152675
# 166575
# 190775
# 220525
# 234362
#
# Disc length: 3340 seconds
# Revision: 0
# Processed by: cddbd v1.4b41PL1 Copyright (c) Steve Scherf et al.
# Submitted via: CDSpectrumPro v3.2.328
#
DISCID=aa0d0a0d
DTITLE=Diane Schuur - The Best of Diane Schuur
DYEAR=1900
DGENRE=
TTITLE0=All Right, OK, You Win (I'm in Love With You)
TTITLE1=Try a Little Tenderness
TTITLE2=The There Eyes
TTITLE3=Sunday Kind of Love
TTITLE4=Speak Low
TTITLE5=Deed I Do
TTITLE6=At Last
TTITLE7=A Time for Love
TTITLE8=Blue Gardenia
TTITLE9=New York State of Mind
TTITLE10='Round Midnight
TTITLE11=Stormy Monday Blues
TTITLE12=Deedles' Blues
EXTD=
EXTT0=
EXTT1=
EXTT2=
EXTT3=
EXTT4=
EXTT5=
EXTT6=
EXTT7=
EXTT8=
EXTT9=
EXTT10=
EXTT11=
EXTT12=
PLAYORDER=
